<svg xmlns="http://www.w3.org/2000/svg" viewBox="0 0 512 512" width="512" height="512">
<defs><linearGradient id="g" x1="0" y1="0" x2="1" y2="1">
<stop offset="0" stop-color="#f0ff5a"/><stop offset="1" stop-color="#3d480f"/></linearGradient></defs>
<rect width="512" height="512" rx="112" fill="url(#g)"/><path d="M150 396 Q214 240 258 116" fill="none" stroke="#08120d" stroke-opacity="1" stroke-width="26" stroke-linecap="round" stroke-linejoin="round"/><path d="M362 396 Q298 240 254 116" fill="none" stroke="#08120d" stroke-opacity="1" stroke-width="26" stroke-linecap="round" stroke-linejoin="round"/><path d="M206 330 L160 316" fill="none" stroke="#08120d" stroke-opacity="0.8" stroke-width="12" stroke-linecap="round" stroke-linejoin="round"/><path d="M196 296 L152 282" fill="none" stroke="#08120d" stroke-opacity="0.8" stroke-width="12" stroke-linecap="round" stroke-linejoin="round"/><path d="M186 262 L144 248" fill="none" stroke="#08120d" stroke-opacity="0.8" stroke-width="12" stroke-linecap="round" stroke-linejoin="round"/><path d="M176 228 L136 214" fill="none" stroke="#08120d" stroke-opacity="0.8" stroke-width="12" stroke-linecap="round" stroke-linejoin="round"/><path d="M166 194 L128 180" fill="none" stroke="#08120d" stroke-opacity="0.8" stroke-width="12" stroke-linecap="round" stroke-linejoin="round"/><path d="M306 330 L352 316" fill="none" stroke="#08120d" stroke-opacity="0.8" stroke-width="12" stroke-linecap="round" stroke-linejoin="round"/><path d="M316 296 L360 282" fill="none" stroke="#08120d" stroke-opacity="0.8" stroke-width="12" stroke-linecap="round" stroke-linejoin="round"/><path d="M326 262 L368 248" fill="none" stroke="#08120d" stroke-opacity="0.8" stroke-width="12" stroke-linecap="round" stroke-linejoin="round"/><path d="M336 228 L376 214" fill="none" stroke="#08120d" stroke-opacity="0.8" stroke-width="12" stroke-linecap="round" stroke-linejoin="round"/><path d="M346 194 L384 180" fill="none" stroke="#08120d" stroke-opacity="0.8" stroke-width="12" stroke-linecap="round" stroke-linejoin="round"/></svg>